PathFileType	4	(X/Y/Z)	OpenSim_Sub08_EMGStiffKnee_Gyro.trc
DataRate	CameraRate	NumFrames	NumMarkers	Units	OrigDataRate	OrigDataStartFrame	OrigNumFrames
100	100	30	8	m	100	2363	6301
Frame#	Time	torso_imu_offset_imu	pelvis_imu_offset_imu	tibia_r_imu_offset_imu	femur_r_imu_offset_imu	tibia_l_imu_offset_imu	femur_l_imu_offset_imu	toes_r_imu_offset_imu	toes_l_imu_offset_imu
				X1	Y1	Z1	X2	Y2	Z2	X3	Y3	Z3	X4	Y4	Z4	X5	Y5	Z5	X6	Y6	Z6	X7	Y7	Z7	X8		Y8	Z8	

2363	23.62000000	-0.22029456	0.04403089	-0.12287471	0.13414553	0.05156001	0.25873830	-0.84877928	0.46332872	0.84803101	1.08929061	-0.12651737	-0.10455320	0.21897343	-0.59344393	0.73714992	-2.83600540	-0.43426343	0.46365582	1.29333363	2.14923337	-0.76275028	-0.20145268	-0.21163061	0.19428653
2364	23.63000000	-0.21145500	0.02238808	-0.10769958	0.05934779	0.02226563	0.32190940	-1.37150768	0.54519450	1.11529696	1.16915252	-0.12729788	-0.23712517	-0.11838055	-0.54978563	0.68349290	-2.17199033	-0.60278370	0.74599905	1.04657495	2.65122863	-0.90101872	-0.20368579	-0.17015364	0.18746311
2365	23.64000000	-0.21246892	0.00389170	-0.07020031	-0.05099239	0.02207672	0.36455168	-1.43448819	0.61224917	1.25843669	1.09217959	-0.12864310	-0.28284845	-0.25753626	-0.54789987	0.67933696	-0.99133360	-0.72791816	0.98115528	0.80957178	3.08132419	-1.14063105	-0.13138966	-0.14969083	0.19362995
2366	23.65000000	-0.21239909	-0.04077160	-0.03243036	-0.16465309	0.04242890	0.39054788	-1.49106777	0.39920155	1.45995110	0.84471318	-0.08989380	-0.23135683	-0.19140763	-0.52456594	0.69010474	0.21758573	-0.75183017	1.12140637	0.49960964	3.16610501	-1.57391829	-0.11815415	-0.08120896	0.21307999
2367	23.66000000	-0.21827491	-0.09193060	0.00356958	-0.28427602	0.05533224	0.40675271	-1.64003222	0.17462245	1.72332304	0.50394673	0.02074603	-0.09752926	0.07571359	-0.49919916	0.66452614	1.18088692	-0.64417568	1.09336964	-0.17654412	2.96201306	-2.01360506	-0.08659466	-0.08013225	0.20827685
2368	23.67000000	-0.24296817	-0.13071368	0.02830693	-0.37615463	0.05742931	0.41525366	-1.26401004	0.07374814	1.91684453	0.22110800	0.16382807	0.10219449	0.33055615	-0.51340469	0.63550586	1.76779453	-0.49588398	0.92642681	-0.75308460	2.93509322	-2.23018720	-0.07080126	-0.06589230	0.19575498
2369	23.68000000	-0.28205785	-0.18984603	0.05162916	-0.40226598	0.06720000	0.42809313	-0.66854931	-0.15031688	1.94868503	0.03276968	0.28231087	0.32936504	0.49485982	-0.53049876	0.63970454	1.94070014	-0.35693123	0.73146207	-1.27035723	2.82811560	-2.21334316	-0.04708815	-0.10356430	0.13692040
2370	23.69000000	-0.32291119	-0.25009324	0.06967910	-0.37142043	0.08034382	0.44028749	-0.54194044	-0.38867491	1.84744245	-0.11652299	0.38745199	0.57464481	0.53988748	-0.48781235	0.66960154	1.83708576	-0.21725753	0.61260818	-1.43568029	2.55945914	-2.03343388	0.04394410	-0.09671929	0.05255132
2371	23.70000000	-0.36356186	-0.31003460	0.07567307	-0.31680696	0.08164984	0.44945026	-0.83265630	-0.43319839	1.74981928	-0.23251626	0.44988001	0.80494228	0.50675059	-0.42500587	0.69239634	1.67456798	-0.09843626	0.58774346	-1.43462493	2.22023672	-1.59269910	0.05610713	-0.11543300	0.00658396
2372	23.71000000	-0.38652169	-0.35856798	0.05175964	-0.27077234	0.08044690	0.45243148	-1.13611372	-0.26108192	1.69513822	-0.35204364	0.44086630	1.02670705	0.51245462	-0.39460251	0.65782712	1.57045133	-0.02973649	0.62369156	-1.97124701	1.83544260	-0.89121555	0.07117323	-0.14084546	-0.01565229
2373	23.72000000	-0.40704107	-0.41068347	0.02164705	-0.25219137	0.05727222	0.44509846	-1.69264812	-0.09835038	1.65269454	-0.49720694	0.41289017	1.16319686	0.57177705	-0.41482459	0.62647855	1.48265973	-0.01183309	0.65141517	-1.70188119	1.68615886	-0.39594508	0.09173083	-0.15200948	-0.01385614
2374	23.73000000	-0.43574872	-0.45380711	0.01047644	-0.26418032	0.02235822	0.41988078	-2.48669009	-0.03796745	1.59692593	-0.60141573	0.38755275	1.26306666	0.66177069	-0.39121019	0.65596079	1.39343198	-0.00127069	0.66999879	-1.14197766	1.72279560	-0.12287013	0.09005367	-0.11957651	0.00198923
2375	23.74000000	-0.46051043	-0.49555951	0.00028181	-0.29152180	-0.01285514	0.37584455	-2.68028724	0.03191121	1.58633433	-0.64331329	0.31962590	1.34718125	0.68384246	-0.34527382	0.68790893	1.29460268	-0.03326634	0.66393855	-0.88720227	1.76802957	-0.02641788	0.09786479	-0.12696472	-0.01198488
2376	23.75000000	-0.48001597	-0.52292372	-0.01655463	-0.30985867	-0.02219251	0.30867615	-2.34726412	0.07102650	1.66994172	-0.68072815	0.23447003	1.42348716	0.60761557	-0.29295580	0.70991446	1.11725785	-0.10220279	0.62237916	-0.97092034	1.75368635	-0.08301696	0.12089451	-0.12187169	-0.04663269
2377	23.76000000	-0.49674032	-0.53275639	-0.01968518	-0.32339218	0.00225746	0.23505544	-1.90486952	0.01424456	1.74357592	-0.74348377	0.15705466	1.49860577	0.47523573	-0.24887408	0.69848666	0.82768887	-0.20494484	0.56985631	-1.19569606	1.74057922	-0.22907704	0.13398269	-0.10191277	-0.06722054
2378	23.77000000	-0.51580377	-0.52414238	-0.02575180	-0.33823252	0.05334195	0.16887292	-1.38845709	-0.05466846	1.75860645	-0.78761097	0.09094608	1.56557233	0.35800405	-0.23425630	0.68923337	0.46248968	-0.30489280	0.52791797	-1.24656075	1.78348041	-0.39986597	0.13031475	-0.12594866	-0.09132265
2379	23.78000000	-0.51968978	-0.50446085	-0.03550142	-0.35896097	0.11344065	0.12009901	-0.89917524	-0.06982113	1.71764837	-0.76328433	0.05193257	1.61637112	0.28655742	-0.22209543	0.70001470	0.05543834	-0.34687254	0.52212411	-1.23546040	1.80312297	-0.51323868	0.14187920	-0.08822481	-0.09936327
2380	23.79000000	-0.53452686	-0.47710667	-0.06542997	-0.38054035	0.16639428	0.08965455	-0.56587617	-0.04919358	1.66523026	-0.63381268	0.05575061	1.61253023	0.30288769	-0.22377112	0.69518471	-0.34757157	-0.32518039	0.50587790	-1.12900782	1.85219199	-0.55793819	0.12830945	-0.10866373	-0.10985211
2381	23.80000000	-0.53278555	-0.44761144	-0.08653357	-0.40240255	0.22363068	0.06509814	-0.41758009	-0.01940996	1.66933891	-0.41299022	0.06838255	1.58583833	0.34600091	-0.24894157	0.68532164	-0.69688682	-0.28943359	0.49180368	-0.85482105	1.90853871	-0.55928170	0.08199979	-0.12408630	-0.10466098
2382	23.81000000	-0.52963925	-0.41299198	-0.10793608	-0.42509281	0.26662808	0.02888500	-0.32469040	0.03482871	1.73936073	-0.19621548	0.09429422	1.60898346	0.33309907	-0.23206549	0.66668123	-0.91722483	-0.23320088	0.45919025	-0.76554013	1.89189769	-0.49946533	0.11477982	-0.13305363	-0.11250026
2383	23.82000000	-0.53111632	-0.37790844	-0.14135783	-0.42358759	0.29441747	-0.02484631	-0.32262971	0.09502778	1.84847480	-0.02805229	0.13319656	1.65148415	0.28446372	-0.23373405	0.68119151	-0.93538607	-0.20151690	0.46812593	-0.70283400	1.87285506	-0.37991615	0.11183840	-0.06908275	-0.09818649
2384	23.83000000	-0.54117670	-0.34392694	-0.15483536	-0.43048371	0.28647203	-0.08990995	-0.35622507	0.13520119	1.93727182	0.08527299	0.17336166	1.67969109	0.18928119	-0.22571049	0.67116920	-0.79629699	-0.21102894	0.46060668	-0.65637395	1.86213338	-0.20959740	0.07841449	-0.09042403	-0.10459948
2385	23.84000000	-0.54836886	-0.31755135	-0.17000302	-0.43584014	0.26532388	-0.15029139	-0.35507435	0.12586284	1.97751633	0.17026272	0.22004135	1.69216116	0.10887261	-0.22331959	0.60402188	-0.56135450	-0.22766943	0.48638058	-0.66718655	1.82470007	0.00130025	0.04195975	-0.06582723	-0.07682985
2386	23.85000000	-0.56057704	-0.29895671	-0.18934699	-0.40522292	0.26598889	-0.20078541	-0.34513038	0.10745418	1.99798987	0.22032517	0.26936888	1.69257325	0.02392501	-0.23826526	0.53713591	-0.22498123	-0.24287449	0.55608431	-0.69814055	1.74367902	0.22097352	0.03851026	-0.04154494	-0.03675040
2387	23.86000000	-0.57121819	-0.28270686	-0.20085660	-0.38157898	0.27640328	-0.23876972	-0.23269193	0.10877563	2.02710635	0.21014509	0.31580862	1.68084746	0.01640619	-0.24838291	0.53499484	0.17252070	-0.22208104	0.60589184	-0.72396395	1.66756064	0.43638652	0.05064178	-0.01559831	0.00200731
2388	23.87000000	-0.58115131	-0.27288883	-0.20944315	-0.35924314	0.28884603	-0.25689543	-0.03168968	0.12100841	2.07318408	0.15701846	0.32307208	1.67988939	0.01313702	-0.23316450	0.54457696	0.55964039	-0.17583737	0.66673212	-0.67432807	1.64386208	0.62095299	0.03170081	0.00962663	0.03497778
2389	23.88000000	-0.58022384	-0.27143752	-0.21956759	-0.35774771	0.29050609	-0.26419494	0.18722502	0.12427493	2.13483487	0.04860017	0.31964962	1.68417664	0.07779526	-0.21444159	0.49808842	0.81288452	-0.14253254	0.68980488	-0.69764593	1.58744129	0.80060225	0.01454044	0.00717923	0.06462061
2390	23.89000000	-0.58519609	-0.26699062	-0.21853686	-0.33754532	0.30016669	-0.25520327	0.33886590	0.11945758	2.18668658	-0.07974867	0.29560327	1.67959576	0.08701510	-0.21555339	0.43865457	0.88460950	-0.11982200	0.67720173	-0.79486778	1.50289446	0.97144382	0.02565481	0.04618576	0.10605977
2391	23.90000000	-0.57483712	-0.26839515	-0.22447583	-0.28883014	0.29300527	-0.24031197	0.39626247	0.11423804	2.20134916	-0.23310143	0.27506581	1.66492463	0.10551562	-0.22616754	0.44208509	0.82355218	-0.10141623	0.68379943	-0.92455321	1.47953387	1.14644377	-0.00943618	0.01476066	0.12301536
2392	23.91000000	-0.56565419	-0.26647465	-0.21666197	-0.23289366	0.26301117	-0.22083213	0.39625474	0.11626827	2.18861949	-0.37909562	0.24642314	1.61909514	0.12055556	-0.21586181	0.46172048	0.65913609	-0.07953134	0.70414063	-0.91884702	1.41887655	1.24878262	-0.02108260	0.09804016	0.16703811
